HIERARCHY
ROOT Hips
{
	OFFSET	0.00	0.00	0.00
	CHANNELS 6 Xposition Yposition Zposition Zrotation Xrotation Yrotation
	JOINT LeftUpLeg
	{
		OFFSET	 0.126116	-0.014019	-0.065224
		CHANNELS 3 Zrotation Xrotation Yrotation
		JOINT LeftLeg
		{
			OFFSET	 0.000000	 0.000000	 0.569914
			CHANNELS 3 Zrotation Xrotation Yrotation
			JOINT LeftFoot
			{
				OFFSET	 0.000000	 0.000000	 0.544423
				CHANNELS 3 Zrotation Xrotation Yrotation
				JOINT LeftToeBase
				{
					OFFSET	 0.000000	 0.000000	 0.207117
					CHANNELS 3 Zrotation Xrotation Yrotation
					End Site
					{
						OFFSET	 0.000000	 0.000000	 0.207117
					}
				}
			}
		}
	}
	JOINT RightUpLeg
	{
		OFFSET	-0.124023	-0.008373	-0.065224
		CHANNELS 3 Zrotation Xrotation Yrotation
		JOINT RightLeg
		{
			OFFSET	 0.000000	 0.000000	 0.570047
			CHANNELS 3 Zrotation Xrotation Yrotation
			JOINT RightFoot
			{
				OFFSET	 0.000000	 0.000000	 0.544354
				CHANNELS 3 Zrotation Xrotation Yrotation
				JOINT RightToeBase
				{
					OFFSET	 0.000000	 0.000000	 0.207540
					CHANNELS 3 Zrotation Xrotation Yrotation
					End Site
					{
						OFFSET	 0.000000	 0.000000	 0.207540
					}
				}
			}
		}
	}
	JOINT Spine
	{
		OFFSET	 0.000184	-0.007763	 0.117403
		CHANNELS 3 Zrotation Xrotation Yrotation
		JOINT Spine1
		{
			OFFSET	 0.000000	 0.000000	 0.137269
			CHANNELS 3 Zrotation Xrotation Yrotation
			JOINT Spine2
			{
				OFFSET	 0.000000	 0.000000	 0.156879
				CHANNELS 3 Zrotation Xrotation Yrotation
				JOINT LeftShoulder
				{
					OFFSET	 0.080501	-0.002496	 0.160144
					CHANNELS 3 Zrotation Xrotation Yrotation
					JOINT LeftArm
					{
						OFFSET	 0.000000	 0.000000	 0.164363
						CHANNELS 3 Zrotation Xrotation Yrotation
						JOINT LeftForeArm
						{
							OFFSET	 0.000000	 0.000000	 0.364576
							CHANNELS 3 Zrotation Xrotation Yrotation
							JOINT LeftHand
							{
								OFFSET	 0.000000	 0.000000	 0.360812
								CHANNELS 3 Zrotation Xrotation Yrotation
								JOINT LeftHandIndex1
								{
									OFFSET	 0.000000	 0.000000	 0.086006
									CHANNELS 3 Zrotation Xrotation Yrotation
									JOINT LeftHandIndex2
									{
										OFFSET	 0.000000	 0.000000	 0.047237
										CHANNELS 3 Zrotation Xrotation Yrotation
										JOINT LeftHandIndex3
										{
											OFFSET	-0.004284	-0.000551	 0.038165
											CHANNELS 3 Zrotation Xrotation Yrotation
											End Site
											{
												OFFSET	-0.004284	-0.000551	 0.038165
											}
										}
									}
								}
							}
						}
					}
				}
				JOINT Neck
				{
					OFFSET	 0.000000	 0.000000	 0.176489
					CHANNELS 3 Zrotation Xrotation Yrotation
					JOINT Head
					{
						OFFSET	 0.000000	-0.001747	 0.077940
						CHANNELS 3 Zrotation Xrotation Yrotation
						End Site
						{
							OFFSET	 0.000000	-0.001747	 0.077940
						}
					}
				}
				JOINT RightShoulder
				{
					OFFSET	-0.080363	 0.000306	 0.159706
					CHANNELS 3 Zrotation Xrotation Yrotation
					JOINT RightArm
					{
						OFFSET	 0.000000	 0.000000	 0.164196
						CHANNELS 3 Zrotation Xrotation Yrotation
						JOINT RightForeArm
						{
							OFFSET	 0.000000	 0.000000	 0.365611
							CHANNELS 3 Zrotation Xrotation Yrotation
							JOINT RightHand
							{
								OFFSET	 0.000000	 0.000000	 0.360648
								CHANNELS 3 Zrotation Xrotation Yrotation
								JOINT RightHandIndex1
								{
									OFFSET	 0.000000	 0.000000	 0.069977
									CHANNELS 3 Zrotation Xrotation Yrotation
									JOINT RightHandIndex2
									{
										OFFSET	 0.000000	 0.000000	 0.052305
										CHANNELS 3 Zrotation Xrotation Yrotation
										JOINT RightHandIndex3
										{
											OFFSET	 0.009002	-0.000782	 0.042196
											CHANNELS 3 Zrotation Xrotation Yrotation
											End Site
											{
												OFFSET	 0.009002	-0.000782	 0.042196
											}
										}
									}
								}
							}
						}
					}
				}
			}
		}
	}
}
MOTION
Frames:    5
Frame Time: 0.03333334
-0.438342	-0.033402	 1.272795	-179.336400	-3.235598	 1.345247	 29.131490	-2.747513	 172.556400	-8.076747	-14.791990	-2.221168	-6.140613	 70.429200	-1.455216	-2.385833	 28.452760	 0.000004	 8.889786	-0.734511	-179.934400	 2.754079	-16.592110	 0.351698	 17.637020	 70.860120	-2.892987	 2.384659	 28.388700	-0.000001	 5.027859	 7.932481	-5.699400	 2.937208	 0.538095	 14.636380	-8.778205	 2.436976	-14.985340	-91.776210	 78.527400	-180.000000	-19.055080	-1.176411	 6.046441	 0.649821	-1.972309	-36.785800	-0.280212	-13.185400	-1.907278	-4.130319	 21.525730	 0.991547	-5.167930	 0.731704	 3.519349	-1.378229	 35.397820	-2.634230	-2.863929	 0.771355	 1.772356	-17.451820	-26.916260	-15.698810	 89.782070	 78.203890	-180.000000	 53.025880	-1.818681	 10.341150	-17.612480	-3.305413	 15.747960	-21.107000	 68.098710	 94.611880	 5.716227	 19.173190	-3.685159	 5.027444	 0.246877	-9.377972	-2.350882	 35.473990	 5.254307
-0.439092	-0.034919	 1.268253	-178.757500	-3.463676	 1.689098	 28.850870	-8.099995	 171.906800	-9.978056	-27.447580	-4.901602	-14.259220	 77.486170	 7.916484	-2.385833	 28.452760	 0.000004	 8.154416	-5.078155	-178.337000	 3.717660	-26.366490	 0.975211	 23.406730	 74.889470	-9.869011	 2.384659	 28.388700	-0.000001	 3.040121	 8.580260	-5.872605	 1.989928	 0.421537	 13.560150	-8.876866	 2.580997	-14.243180	-91.776220	 78.527420	-180.000000	-25.023120	 13.568470	 28.285370	-2.521022	-2.868250	-100.587700	-0.551900	-12.664290	-2.104308	-4.130319	 21.525730	 0.991547	-5.167930	 0.731704	 3.519349	-1.378229	 35.397820	-2.634230	-3.135854	 1.146580	 2.362552	-18.169240	-27.824420	-18.070960	 89.782100	 78.203900	 180.000000	 41.260890	 12.464470	-23.702420	-5.320862	-11.896670	 93.565010	 46.494850	 44.779970	 20.670810	 5.716227	 19.173190	-3.685159	 5.027444	 0.246877	-9.377972	-2.350882	 35.473990	 5.254307
-0.440469	-0.037014	 1.262668	-178.080500	-3.609404	 1.470967	 26.592270	-11.242980	 172.018900	-11.494360	-37.230110	-7.362756	-38.215380	 82.638170	 32.429950	-2.385833	 28.452760	 0.000004	 7.747125	-8.596800	-175.591100	 4.270799	-34.528740	 1.558505	 37.783400	 77.465950	-25.460950	 2.384659	 28.388700	-0.000001	 0.533948	 9.299570	-5.381995	 0.758434	 0.443684	 12.546390	-8.930367	 2.515454	-13.599890	-91.776150	 78.527400	 180.000000	-5.921862	 49.014420	 3.420945	-3.705572	-2.394078	-125.740000	-0.514607	-12.597190	-2.111549	-4.130319	 21.525730	 0.991547	-5.167930	 0.731704	 3.519349	-1.378229	 35.397820	-2.634230	-3.056722	 0.674591	 1.919518	-17.955910	-27.187960	-17.257110	 89.782160	 78.203900	 180.000000	-3.584251	 40.335750	 3.932855	-2.185179	-9.427151	 112.464800	 22.880990	-1.220418	 11.497950	 5.716227	 19.173190	-3.685159	 5.027444	 0.246877	-9.377972	-2.350882	 35.473990	 5.254307
-0.447819	-0.041040	 1.255035	-176.728000	-3.972941	 1.142396	 22.355320	-13.213600	 172.771600	-13.320260	-46.741700	-10.202990	-105.909700	 83.146650	 100.408600	-2.385833	 28.452760	 0.000004	 6.615400	-11.805130	-171.306200	 5.232638	-42.376710	 2.502444	 54.546090	 77.582770	-44.116520	 2.384659	 28.388700	-0.000001	-3.130523	 9.428737	-4.973250	-0.554493	 2.675147	 12.386400	-9.626264	 1.069861	-13.490080	-91.776200	 78.527380	-180.000000	 54.463070	 44.867900	-92.274020	-1.326744	-2.802752	-76.827410	-0.575666	-12.305400	-2.127376	-4.130319	 21.525730	 0.991547	-5.167930	 0.731704	 3.519349	-1.378229	 35.397820	-2.634230	-3.232005	 0.102286	 0.540057	-17.668100	-26.226460	-13.949750	 89.782080	 78.203900	-180.000000	-61.444690	 41.761890	 92.821910	-13.162080	-7.774809	 47.395360	 3.584709	-31.558960	 26.112860	 5.716227	 19.173190	-3.685159	 5.027444	 0.246877	-9.377972	-2.350882	 35.473990	 5.254307
-0.460802	-0.043187	 1.255674	-175.409700	-3.720968	 1.428238	 18.845090	-12.383000	 173.819800	-12.207160	-44.755390	-9.065561	-98.232700	 83.163620	 92.393740	-2.385833	 28.452760	 0.000004	 3.614084	-12.510490	-170.961300	 5.957113	-42.032290	 2.972354	 42.409550	 75.838340	-32.491920	 2.384659	 28.388700	-0.000001	-4.804506	 8.235981	-5.621948	 0.359642	 3.145506	 14.621200	-9.424012	 1.994822	-14.453540	-91.776150	 78.527420	 180.000000	 48.017800	 48.334440	-75.074790	-2.150514	-2.784335	-93.499870	-0.655738	-11.807350	-2.147809	-4.130319	 21.525730	 0.991547	-5.167930	 0.731704	 3.519349	-1.378229	 35.397820	-2.634230	-4.059866	 2.272795	 2.456725	-18.681510	-27.367320	-18.211970	 89.782070	 78.203870	-180.000000	-40.647120	 46.181030	 59.761940	-8.120810	-10.119030	 78.502460	 6.924250	-21.372650	 14.602780	 5.716227	 19.173190	-3.685159	 5.027444	 0.246877	-9.377972	-2.350882	 35.473990	 5.254307
